<?xml version="1.0" encoding="UTF-8" standalone="no"?>
<svg
   xmlns:dc="http://purl.org/dc/elements/1.1/"
   xmlns:cc="http://creativecommons.org/ns#"
   xmlns:rdf="http://www.w3.org/1999/02/22-rdf-syntax-ns#"
   xmlns:svg="http://www.w3.org/2000/svg"
   xmlns="http://www.w3.org/2000/svg"
   xmlns:sodipodi="http://sodipodi.sourceforge.net/DTD/sodipodi-0.dtd"
   xmlns:inkscape="http://www.inkscape.org/namespaces/inkscape"
   sodipodi:docname="logo-ver2.svg"
   inkscape:version="1.0 (1.0+r73+1)"
   id="svg358"
   version="1.1"
   viewBox="0 0 120 47"
   height="47"
   width="120">
   <style>
          path { fill: #ffffff; }
          polygon { fill: #ffffff; }
   </style>

    <path
       d="m 23.433039,41.451929 c -9.75695,0 -17.6672204,-7.990414 -17.6672204,-17.846218 0,-9.855804 7.9091304,-17.8462205 17.6672204,-17.8462205 5.63928,0 10.65805,2.6719222 13.89174,6.8278595 l 4.66289,-3.7538243 c -1.18511,-1.5013002 -2.54816,-2.8539672 -4.05608,-4.0245902 -0.89881,1.33769 -2.68162,1.766303 -4.08916,0.944794 -1.40868,-0.82151 -1.93337,-2.599334 -1.23188,-4.054546 -1.85808,-0.77772696 -3.8348,-1.32155896 -5.89706,-1.59347496 -0.11406,1.61306196 -1.44746,2.88622796 -3.074,2.88622796 -1.62653,0 -2.95993,-1.273166 -3.07399,-2.88622796 -2.06226,0.271916 -4.04012,0.815748 -5.89706,1.59347496 0.70148,1.455212 0.17679,3.233036 -1.23188,4.054546 -1.40868,0.821509 -3.19149,0.392896 -4.0903004,-0.944794 -1.61856,1.258189 -3.06944,2.723771 -4.31501,4.3587242 1.32427,0.9079233 1.74859,2.7087913 0.93532,4.1317423 -0.81327,1.424102 -2.57212,1.951804 -4.01388,1.243209 -0.76992,1.876912 -1.30716002,3.874804 -1.57749002,5.956805 1.59688002,0.116371 2.85842002,1.463277 2.85842002,3.106295 0,1.643018 -1.26154,2.988772 -2.85842002,3.103991 0.26919,2.083153 0.80757002,4.081045 1.57749002,5.957957 1.44062,-0.708595 3.20061,-0.179742 4.01388,1.244361 0.81327,1.421798 0.38895,3.222666 -0.93532,4.130589 1.24557,1.634953 2.69645,3.101686 4.31501,4.359874 0.8988104,-1.338841 2.6816204,-1.767454 4.0903004,-0.945945 1.40982,0.821509 1.93222,2.599333 1.23188,4.055697 1.85694,0.777726 3.8348,1.320406 5.89706,1.593474 0.11406,-1.614213 1.44746,-2.88738 3.07399,-2.88738 1.62654,0 2.9588,1.273167 3.074,2.88738 2.06226,-0.273068 4.03898,-0.815748 5.89706,-1.593474 -0.70149,-1.456364 -0.17794,-3.234188 1.23188,-4.055697 1.40754,-0.821509 3.19035,-0.392896 4.08916,0.945945 1.50792,-1.171774 2.87097,-2.524441 4.05608,-4.02574 l -4.66289,-3.753824 c -3.23369,4.155937 -8.25246,6.82901 -13.89174,6.82901 z"
       id="path141"
       style="stroke-width:0.00114639" />
    <path
       d="m 20.621389,24.314306 2.62801,-7.780716 h 0.0605 l 2.53676,7.780716 z m 29.05185,5.158339 V 17.468013 h -13.22675 l -0.20873,3.348254 2.35882,0.21085 c -0.29885,6.182634 -1.49765,8.377549 -3.67283,8.505442 -1.14291,0.06683 -2.44893,-0.02996 -2.44893,-0.02996 l -5.88109,-16.559223 h -5.97234 l -5.91075,16.317267 -2.09077,0.150936 0.17907,3.136252 h 7.5544 l 0.20873,-2.713399 -1.8809,-0.150937 0.95585,-2.503701 h 7.16544 l 1.04482,2.684594 -1.64251,0.180894 v 2.502549 c 0,0 9.16725,0.180893 9.64403,0.180893 3.85191,0 6.15142,-3.799911 6.50958,-11.942414 h 2.89606 v 8.444376 l -1.61285,0.180893 0.17908,3.136252 h 7.316 l 0.20873,-2.955359 z"
       id="path143"
       style="stroke-width:0.00114639" />
    <path
       d="m 58.959109,25.188815 v 4.464723 h 1.76114 c 1.88204,0 3.04548,-0.724725 3.04548,-2.533658 0,-1.719062 -1.43263,-1.931065 -3.07514,-1.931065 z m -6.06131,4.222764 1.67217,-0.180893 V 20.78631 l -1.5524,-0.180893 0.17908,-3.137404 h 5.76246 v 4.886423 h 1.82045 c 4.41994,0 7.52474,1.145274 7.52474,4.644464 0,3.619019 -2.59722,5.548931 -7.49394,5.548931 h -7.70382 z"
       id="path145"
       style="stroke-width:0.00114639" />
    <path
       d="m 76.723289,24.827029 h 2.32917 v -4.463571 h -1.85125 c -2.03032,0 -3.01582,0.452809 -3.01582,2.082001 0,1.566974 1.16458,2.38157 2.5379,2.38157 z m -7.22475,7.720802 -0.20874,-3.136252 2.47859,-0.119827 1.31287,-2.594724 c -1.76114,-0.934424 -3.1356,-2.472593 -3.1356,-4.342592 0,-3.227274 2.29951,-4.886423 6.83808,-4.886423 h 8.03232 v 3.137404 l -1.37446,0.180893 v 8.686335 l 1.67331,0.119828 -0.20988,2.955358 h -5.85257 V 27.66256 h -2.26872 l -1.67216,3.619018 -1.04482,1.266253 z"
       id="path147"
       style="stroke-width:0.00114639" />
    <polygon
       points="87911,31305 87911,25913 82938,25913 82938,28976 84038,29106 83854,31305 77807,31305 77624,28583 79090,28426 79090,21097 77729,20940 77886,18217 82938,18217 82938,23243 87911,23243 87911,20573 86891,20416 86891,18217 92938,18217 92938,20940 91734,21097 91734,28636 93200,28740 93016,31305 "
       transform="matrix(0.00114063,0,0,0.00115219,-1.635731,-3.5213745)"
       id="polygon149" />
    <path
       d="m 116.37501,23.379882 -0.23953,-2.473744 c -0.38782,-0.391744 -1.10413,-0.904467 -2.14895,-0.904467 -2.03031,0 -3.13672,1.116469 -3.13672,4.70553 0,3.648975 1.46343,5.277015 3.91235,5.277015 2.17974,0 3.73214,-1.868847 3.73214,-1.868847 l 1.8809,2.110806 c 0,0 -1.58205,2.895445 -6.09097,2.895445 -5.43395,0 -8.00151,-3.227275 -8.00151,-8.354505 0,-4.886423 2.68619,-7.841782 7.07533,-7.841782 1.25469,0 2.41927,0.633703 3.22569,1.206339 l 0.47679,-0.904466 h 2.65767 l -0.0593,6.152676 z"
       id="path151"
       style="stroke-width:0.00114639" />
    <polygon
       points="40280,35152 39816,35128 39840,34656 42272,34656 42704,34624 42712,35978 42224,35978 42185,35152 40910,35152 40910,38127 41414,38151 41383,38591 39840,38591 39808,38119 40280,38095 "
       transform="matrix(0.00114063,0,0,0.00115219,-1.635731,-3.5213745)"
       id="polygon153" />
    <path
       d="m 48.833739,37.47919 v 2.62929 c 0.0627,0.07259 0.43001,0.409026 1.13036,0.409026 1.14063,0 1.61627,-0.8169 1.61627,-2.041675 0,-1.215557 -0.55662,-1.631496 -1.52616,-1.631496 -0.79046,0 -1.15774,0.534615 -1.22047,0.634855 z m -1.22162,5.730976 -0.0365,-0.543832 0.53952,-0.02765 v -5.658391 l -0.52925,-0.02765 0.0262,-0.543832 h 1.13151 l 0.0627,0.508114 c 0.0901,-0.118675 0.52013,-0.634855 1.49879,-0.634855 1.22161,0 2.02006,0.752378 2.02006,2.175329 0,1.488625 -0.72659,2.613159 -2.11815,2.613159 -0.96041,0 -1.37332,-0.435527 -1.37332,-0.435527 v 2.040523 l 0.53837,0.02765 -0.0365,0.506961 z"
       id="path155"
       style="stroke-width:0.00114639" />
    <path
       d="m 52.827079,42.647899 c 0,0 0.31368,0.109458 0.61937,0.109458 0.49389,0 0.92505,-0.798466 1.30145,-1.814694 l -1.679,-3.96237 -0.63647,-0.02765 0.0354,-0.543832 h 1.16687 l 1.4908,3.736541 h 0.009 l 1.19424,-3.192709 -0.47678,-0.01728 v -0.526554 h 1.73375 v 0.543832 l -0.59312,0.02765 -1.57065,4.06261 c -0.5053,1.305427 -1.11326,2.294004 -1.88546,2.294004 -0.64674,0 -0.78134,-0.190111 -0.78134,-0.190111 z"
       id="path157"
       style="stroke-width:0.00114639" />
    <polygon
       points="56240,34656 56240,35128 55807,35152 55807,38127 56279,38151 56248,38591 55169,38591 55169,35152 53146,35152 53146,38127 53619,38151 53588,38591 52076,38591 52044,38119 52516,38095 52516,35152 52052,35128 52076,34656 "
       transform="matrix(0.00114063,0,0,0.00115219,-1.635731,-3.5213745)"
       id="polygon159" />
    <polygon
       points="61048,34656 61048,35128 60615,35152 60615,38127 61087,38151 61056,38591 59977,38591 59977,35152 57954,35152 57954,38127 58427,38151 58395,38591 56884,38591 56852,38119 57325,38095 57325,35152 56860,35128 56884,34656 "
       transform="matrix(0.00114063,0,0,0.00115219,-1.635731,-3.5213745)"
       id="polygon161" />
    <path
       d="m 71.712499,39.890716 v -1.151034 c -1.08588,0.08181 -2.25389,0.135958 -2.25389,0.960924 0,0.571484 0.35018,0.861835 1.05965,0.861835 0.87144,0 1.16686,-0.607202 1.19424,-0.671725 z m -2.58581,-2.103892 0.0274,-1.422951 h 0.45739 l 0.0627,0.335287 c 0.23383,-0.172828 0.64674,-0.417092 1.21249,-0.417092 1.0049,0 1.54442,0.506962 1.54442,1.649931 v 2.476049 l 0.53837,0.02765 -0.0354,0.506962 h -1.09614 l -0.10722,-0.580699 c -0.081,0.146328 -0.44028,0.708595 -1.42807,0.708595 -1.02314,0 -1.57977,-0.481614 -1.57977,-1.297362 0,-1.323862 1.84896,-1.39645 2.98959,-1.513973 v -0.318004 c 0,-0.789248 -0.26919,-1.124534 -1.01402,-1.124534 -0.51214,0 -0.84407,0.244263 -0.98779,0.381373 l -0.0365,0.588768 z"
       id="path163"
       style="stroke-width:0.00114639" />
    <polygon
       points="69687,36151 70514,35097 70270,35081 70293,34656 71765,34656 71765,35128 71080,35191 70104,36364 71356,38080 72072,38087 72040,38591 71072,38591 70766,38261 69577,36663 69112,36876 69112,38158 69522,38182 69499,38591 68043,38591 68011,38119 68483,38095 68483,35152 67956,35128 67987,34656 69112,34656 69112,36419 "
       transform="matrix(0.00114063,0,0,0.00115219,-1.635731,-3.5213745)"
       id="polygon165" />
    <path
       d="m 84.601619,38.648659 c 0,-1.151034 -0.44827,-1.831976 -1.48054,-1.831976 -1.02428,0 -1.48282,0.689007 -1.48282,1.831976 10e-4,1.152187 0.45854,1.88613 1.48282,1.88613 1.03227,0 1.48054,-0.733943 1.48054,-1.88613 z m -3.70705,-0.0092 c 0,-1.478255 0.76194,-2.357374 2.22651,-2.357374 1.47142,0 2.22651,0.879119 2.22651,2.357374 0,1.478256 -0.79045,2.431114 -2.22651,2.431114 -1.46457,0 -2.22651,-0.952858 -2.22651,-2.431114 z"
       id="path167"
       style="stroke-width:0.00114639" />
    <polygon
       points="79642,38048 81051,34656 82342,34656 82342,35128 81885,35152 81932,38135 82405,38151 82381,38591 81374,38591 81334,35671 81334,35364 81326,35364 79941,38591 79335,38591 77902,35372 77902,35443 77839,38143 78280,38166 78249,38591 76879,38591 76848,38119 77304,38103 77430,35136 77414,35152 76919,35128 76950,34656 78256,34656 "
       transform="matrix(0.00114063,0,0,0.00115219,-1.635731,-3.5213745)"
       id="polygon169" />
    <polygon
       points="87189,34656 87189,35128 86756,35152 86756,38127 87228,38151 87197,38591 86118,38591 86118,35152 84095,35152 84095,38127 84568,38151 84536,38591 83025,38591 82994,38119 83466,38095 83466,35152 83002,35128 83025,34656 "
       transform="matrix(0.00114063,0,0,0.00115219,-1.635731,-3.5213745)"
       id="polygon171" />
    <path
       d="m 101.52972,39.890716 v -1.151034 c -1.08588,0.08181 -2.253887,0.135958 -2.253887,0.960924 10e-4,0.571484 0.35131,0.861835 1.059647,0.861835 0.87144,0 1.16686,-0.607202 1.19424,-0.671725 z m -2.585807,-2.103892 0.0274,-1.422951 h 0.45854 l 0.0616,0.335287 c 0.23383,-0.172828 0.646737,-0.417092 1.212487,-0.417092 1.0049,0 1.54441,0.506962 1.54441,1.649931 v 2.476049 l 0.53838,0.02765 -0.0354,0.506962 h -1.09614 l -0.10722,-0.580702 c -0.081,0.146328 -0.44029,0.708595 -1.42807,0.708595 -1.022007,0 -1.579777,-0.481614 -1.579777,-1.297362 0,-1.323862 1.850107,-1.39645 2.989597,-1.513973 v -0.318004 c 0,-0.789248 -0.26919,-1.124534 -1.01402,-1.124534 -0.51215,0 -0.844067,0.244263 -0.987787,0.381373 l -0.0365,0.588768 z"
       id="path173"
       style="stroke-width:0.00114639" />
    <polygon
       points="95215,38591 95215,36797 93121,36797 93121,38190 93531,38206 93507,38591 92051,38591 92019,38119 92491,38095 92491,35152 92027,35128 92051,34656 93121,34656 93121,36332 95215,36332 95215,35057 94814,35034 94814,34656 96277,34656 96277,35128 95844,35152 95844,38127 96317,38151 96286,38591 "
       transform="matrix(0.00114063,0,0,0.00115219,-1.635731,-3.5213745)"
       id="polygon175" />
    <polygon
       points="101283,34656 101283,35128 100818,35152 100818,38127 101290,38151 101259,38591 99740,38591 99740,38182 100180,38135 100180,35482 97803,38591 97339,38591 97339,35152 96875,35128 96898,34656 97969,34656 97969,37631 100228,34656 "
       transform="matrix(0.00114063,0,0,0.00115219,-1.635731,-3.5213745)"
       id="polygon177" />
    <path
       d="m 117.99128,34.71279 v -0.0092 l 0.64674,0.08987 c 0,0 -0.1882,0.926358 -1.55354,0.926358 -1.35507,0 -1.54441,-0.926358 -1.54441,-0.926358 l 0.64674,-0.08987 v 0.0092 c 0,0 0.12546,0.534614 0.89767,0.534614 0.78133,0 0.9068,-0.534614 0.9068,-0.534614 z m -0.1882,6.229873 v -0.471245 l 0.50188,-0.05415 v -3.056751 l -2.71128,3.582148 h -0.52925 v -3.96237 l -0.5304,-0.02765 0.0274,-0.543832 h 1.22161 v 3.427755 l 2.57669,-3.427755 h 1.20336 v 0.543832 l -0.53039,0.02765 v 3.427755 l 0.53838,0.02765 -0.0354,0.506962 z"
       id="path179"
       style="stroke-width:0.00114639" />
</svg>
